<?xml version="1.0" standalone="no"?>
<!DOCTYPE svg PUBLIC "-//W3C//DTD SVG 20010904//EN"
 "http://www.w3.org/TR/2001/REC-SVG-20010904/DTD/svg10.dtd">
<svg version="1.0" xmlns="http://www.w3.org/2000/svg"
 width="128.000000pt" height="128.000000pt" viewBox="0 0 128.000000 128.000000"
 preserveAspectRatio="xMidYMid meet">
<metadata>
Created by potrace 1.11, written by Peter Selinger 2001-2013
</metadata>
<g transform="translate(0.000000,128.000000) scale(0.100000,-0.100000)"
fill="#000000" stroke="none">
<path d="M520 1265 c-182 -41 -323 -136 -415 -279 -225 -352 -61 -817 336
-950 304 -102 637 40 774 329 170 359 -28 789 -410 890 -88 23 -208 27 -285
10z m464 -367 c20 -28 21 -92 1 -108 -13 -11 -13 -15 0 -33 20 -28 19 -91 -1
-111 -14 -15 -14 -17 0 -32 21 -20 21 -88 0 -108 -14 -15 -14 -17 0 -32 18
-18 21 -76 6 -105 -10 -18 -23 -19 -210 -19 -115 0 -201 4 -205 10 -3 5 -24 1
-51 -10 -58 -25 -90 -25 -156 0 -236 90 -214 415 32 472 50 11 90 7 153 -17
15 -6 17 -1 17 43 0 38 4 54 18 61 10 6 94 11 199 11 177 0 182 -1 197 -22z"/>
</g>
</svg>
