<?xml version="1.0" standalone="no"?>
<!DOCTYPE svg PUBLIC "-//W3C//DTD SVG 20010904//EN"
 "http://www.w3.org/TR/2001/REC-SVG-20010904/DTD/svg10.dtd">
<svg version="1.0" xmlns="http://www.w3.org/2000/svg"
 width="138.000000pt" height="138.000000pt" viewBox="0 0 138.000000 138.000000"
 preserveAspectRatio="xMidYMid meet">
<metadata>
Created by potrace 1.11, written by Peter Selinger 2001-2013
</metadata>
<g transform="translate(0.000000,138.000000) scale(0.100000,-0.100000)"
fill="#000000" stroke="none">
<path d="M675 1349 c-4 -6 -5 -12 -2 -15 2 -3 7 2 10 11 7 17 1 20 -8 4z"/>
<path d="M625 1238 c-69 -150 -87 -245 -75 -393 6 -76 7 -81 8 -32 1 38 6 56
13 52 7 -5 8 5 4 29 -10 50 37 246 59 246 6 0 12 10 13 21 2 20 1 20 -11 3 -9
-12 -8 3 4 52 10 38 21 77 25 87 4 9 5 17 2 17 -2 0 -21 -37 -42 -82z"/>
<path d="M499 1167 c-203 -69 -353 -242 -395 -454 -19 -98 -12 -201 22 -302
26 -77 100 -201 120 -201 6 0 22 -9 36 -19 15 -12 46 -21 85 -24 58 -4 64 -2
95 25 18 16 25 27 16 24 -12 -3 -15 -1 -11 10 5 13 22 18 51 15 6 -1 12 3 12
9 0 15 36 12 50 -5 16 -20 31 -10 26 18 -3 12 -6 24 -7 27 -1 3 -3 12 -4 20
-8 53 -14 57 -106 71 -49 7 -84 16 -77 20 7 4 15 6 19 3 12 -7 18 36 8 69 -12
43 -12 110 1 102 6 -4 10 11 11 37 0 24 4 52 9 63 7 18 8 18 15 -8 4 -15 5
-50 3 -76 -3 -32 0 -57 9 -72 13 -22 14 -16 9 54 -4 77 -4 77 23 92 28 14 28
15 19 67 -14 75 -5 313 14 363 21 57 30 95 21 95 -5 0 -38 -11 -74 -23z m-79
-885 c8 -4 16 -15 16 -24 2 -17 -11 -22 -47 -19 -9 1 -21 -9 -27 -21 -10 -21
-10 -20 -5 10 3 20 1 32 -6 32 -6 0 -11 7 -11 15 0 16 51 20 80 7z m-93 -88
c-3 -3 -12 -4 -19 -1 -8 3 -5 6 6 6 11 1 17 -2 13 -5z"/>
<path d="M828 1107 c26 -89 35 -252 19 -373 l-8 -61 31 -13 c21 -9 29 -18 25
-28 -3 -8 -8 -42 -12 -75 -5 -44 -3 -58 5 -53 7 4 12 22 12 39 0 53 12 137 20
137 7 0 30 -68 30 -89 0 -7 -4 -9 -10 -6 -14 9 -13 -138 1 -152 8 -8 5 -14
-10 -23 -28 -15 -41 -5 -41 30 0 25 -7 32 -46 49 -25 11 -43 25 -39 31 12 20
34 144 26 150 -5 3 -5 30 0 60 10 70 9 208 -1 240 -5 17 -8 19 -9 8 -1 -26
-20 -22 -55 10 -20 17 -24 19 -12 5 16 -20 17 -26 6 -55 -7 -18 -22 -41 -33
-51 -19 -17 -19 -17 4 -14 16 3 27 14 34 33 10 30 23 44 40 43 6 0 4 -3 -2 -6
-7 -2 -13 -13 -13 -22 0 -10 -9 -30 -20 -43 -10 -14 -16 -29 -12 -33 4 -5 1
-5 -5 -1 -7 4 -13 2 -13 -4 0 -7 -6 -10 -13 -7 -8 3 -14 -1 -14 -9 0 -8 6 -14
12 -14 8 0 12 -25 12 -82 -1 -116 11 -198 28 -198 27 0 34 -32 14 -67 -18 -32
-18 -33 1 -43 10 -5 37 -10 59 -10 36 0 69 -18 39 -22 -7 0 7 -4 32 -8 43 -7
42 -7 -22 -8 -57 -2 -68 -5 -69 -19 -5 -62 -4 -75 8 -85 10 -8 13 -2 13 31 0
22 3 41 8 41 4 0 19 -13 32 -28 14 -16 32 -31 39 -33 8 -3 15 -16 17 -30 1
-13 3 -26 3 -28 1 -2 9 6 19 17 21 25 101 45 119 31 9 -8 18 -5 34 10 12 11
26 18 31 15 5 -3 17 1 27 10 10 9 24 16 30 14 21 -6 57 71 77 162 66 310 -137
629 -447 703 l-26 7 25 -83z"/>
<path d="M609 1023 c0 -5 -2 -26 -4 -48 l-4 -40 13 30 c7 17 9 31 5 33 -4 2
-5 10 -2 18 3 8 2 14 -1 14 -3 0 -6 -3 -7 -7z"/>
<path d="M607 859 c4 -13 8 -18 11 -10 2 7 -1 18 -6 23 -8 8 -9 4 -5 -13z"/>
<path d="M562 725 c0 -16 2 -22 5 -12 2 9 2 23 0 30 -3 6 -5 -1 -5 -18z"/>
<path d="M556 643 c11 -48 25 -104 30 -117 3 -7 -14 -22 -41 -35 -25 -12 -46
-25 -46 -29 -9 -45 -6 -52 22 -52 67 0 105 35 75 69 -12 13 -14 21 -7 26 15 9
14 53 -4 113 -16 54 -40 74 -29 25z"/>
<path d="M662 590 c0 -14 2 -19 5 -12 2 6 2 18 0 25 -3 6 -5 1 -5 -13z"/>
<path d="M712 550 c0 -14 2 -19 5 -12 2 6 2 18 0 25 -3 6 -5 1 -5 -13z"/>
<path d="M760 500 c8 -5 20 -10 25 -10 6 0 3 5 -5 10 -8 5 -19 10 -25 10 -5 0
-3 -5 5 -10z"/>
<path d="M608 493 c7 -3 16 -2 19 1 4 3 -2 6 -13 5 -11 0 -14 -3 -6 -6z"/>
<path d="M755 350 c-3 -5 -1 -10 4 -10 6 0 11 5 11 10 0 6 -2 10 -4 10 -3 0
-8 -4 -11 -10z"/>
<path d="M1166 264 c-4 -9 -4 -19 -1 -22 2 -3 7 3 11 12 4 9 4 19 1 22 -2 3
-7 -3 -11 -12z"/>
<path d="M760 255 c0 -6 11 -22 24 -38 l24 -27 4 25 c4 19 1 25 -11 25 -10 0
-22 5 -29 12 -7 7 -12 8 -12 3z"/>
<path d="M590 185 c-8 -9 -8 -15 -2 -15 12 0 26 19 19 26 -2 2 -10 -2 -17 -11z"/>
</g>
</svg>
